{"title":"The Woman in Black 2012 SCR CROPPED ANALOG","uid":7044604,"size":1381366250,"categoryP":"video","categoryS":"movies","magnet":"?xt=urn:btih:75e7300ce88f466b5023ce918f4ba8c0d9c84571&amp;dn=The+Woman+in+Black+2012+SCR+CROPPED+ANALOG&amp;tr=udp%3A%2F%2Ftracker.openbittorrent.com%3A80&amp;tr=udp%3A%2F%2Fopen.demonii.com%3A1337&amp;tr=udp%3A%2F%2Ftracker.coppersurfer.tk%3A6969&amp;tr=udp%3A%2F%2Fexodus.desync.com%3A6969","seeders":1,"leechers":0,"uploader":".BONE.","files":10,"time":1329697576,"description":"Complete name : C:\\Users\\root\\Desktop\\The.Woman.in.Black.2012.SCR.CROPPED.ANALOG\\T.W.I.B.SCR.ANALOG.avi\nFormat : AVI\nFormat/Info : Audio Video Interleave\nFile size : 1.28 GiB\nDuration : 1h 28mn\nOverall bit rate : 2 074 Kbps\nMovie name : T.W.I.B.SCR.ANALOG\nWriting application : VirtualDub build 32842/releaseLavf52.31.0\nCopyright : ANALOG\n\nVideo\nID : 0\nFormat : MPEG-4 Visual\nFormat profile : Advanced Simple@L5\nFormat settings, BVOP : 1\nFormat settings, QPel : Yes\nFormat settings, GMC : No warppoints\nFormat settings, Matrix : Default (H.263)\nMuxing mode : Packed bitstream\nCodec ID : XVID\nCodec ID/Hint : XviD\nDuration : 1h 28mn\nBit rate : 1 933 Kbps\nWidth : 720 pixels\nHeight : 288 pixels\nDisplay aspect ratio : 2.500\nFrame rate : 25.000 fps\nColor space : YUV\nChroma subsampling : 4:2:0\nBit depth : 8 bits\nScan type : Progressive\nCompression mode : Lossy\nBits/(Pixel*Frame) : 0.373\nStream size : 1.19 GiB (93%)\nWriting library : XviD 64\n\nAudio\nID : 1\nFormat : MPEG Audio\nFormat version : Version 1\nFormat profile : Layer 3\nMode : Joint stereo\nMode extension : MS Stereo\nCodec ID : 55\nCodec ID/Hint : MP3\nDuration : 1h 28mn\nBit rate mode : Constant\nBit rate : 128 Kbps\nChannel(s) : 2 channels\nSampling rate : 48.0 KHz\nCompression mode : Lossy\nStream size : 80.8 MiB (6%)\nAlignment : Aligned on interleaves\nInterleave, duration : 24 ms (0.60 video frame)\nInterleave, preload duration : 504 ms\nLanguage : English\nSample : Yes\nsource : unmarked p2p screener(avi) THANX\n\ncroped and filterd the video and used the mp3 allready on the video as there wasent enything wrong with it....not going to bore you with all the filters added so enjoy!!\nAs humans, we perceive the world in analog. Everything we see and hear is a continuous transmission of information to our senses.\n&lt;a class=&quot;__cf_email__&quot; href=&quot;/cdn-cgi/l/email-protection&quot; data-cfemail=&quot;a8c9c6c9c4c7cf86d8869a86d8e8c0dddbc0c5c9c1c486cbc7c5&quot;&gt;[email&amp;#160;protected]&lt;/a&gt;&lt;script cf-hash='f9e31' type=&quot;text/javascript&quot;&gt;\n/* &lt;![CDATA[ */!function(){try{var t=&quot;currentScript&quot;in document?document.currentScript:function(){for(var t=document.getElementsByTagName(&quot;script&quot;),e=t.length;e--;)if(t[e].getAttribute(&quot;cf-hash&quot;))return t[e]}();if(t&amp;&amp;t.previousSibling){var e,r,n,i,c=t.previousSibling,a=c.getAttribute(&quot;data-cfemail&quot;);if(a){for(e=&quot;&quot;,r=parseInt(a.substr(0,2),16),n=2;a.length-n;n+=2)i=parseInt(a.substr(n,2),16)^r,e+=String.fromCharCode(i);e=document.createTextNode(e),c.parentNode.replaceChild(e,c)}}}catch(u){}}();/* ]]&gt; */&lt;/script&gt;\nGREATINGS TO ALL THE P2P PLACES I LURK AT!!\n &lt;a href=&quot;\nhttp://www.aedes.us/e/huxVS.png&quot; rel=&quot;nofollow&quot; target=&quot;_NEW&quot;&gt;\nhttp://www.aedes.us/e/huxVS.png&lt;/a&gt; &lt;a href=&quot;\nhttp://www.aedes.us/e/qOAPa.png&quot; rel=&quot;nofollow&quot; target=&quot;_NEW&quot;&gt;\nhttp://www.aedes.us/e/qOAPa.png&lt;/a&gt; &lt;a href=&quot;\nhttp://www.aedes.us/e/UKcN8.png&quot; rel=&quot;nofollow&quot; target=&quot;_NEW&quot;&gt;\nhttp://www.aedes.us/e/UKcN8.png&lt;/a&gt; &lt;a href=&quot;\nhttp://www.aedes.us/e/idsLV.png&quot; rel=&quot;nofollow&quot; target=&quot;_NEW&quot;&gt;\nhttp://www.aedes.us/e/idsLV.png&lt;/a&gt;","torrent":{"xt":"urn:btih:75e7300ce88f466b5023ce918f4ba8c0d9c84571","amp;dn":"The+Woman+in+Black+2012+SCR+CROPPED+ANALOG","amp;tr":["udp%3A%2F%2Ftracker.openbittorrent.com%3A80","udp%3A%2F%2Fopen.demonii.com%3A1337","udp%3A%2F%2Ftracker.coppersurfer.tk%3A6969","udp%3A%2F%2Fexodus.desync.com%3A6969"],"infoHash":"75e7300ce88f466b5023ce918f4ba8c0d9c84571","infoHashBuffer":{"type":"Buffer","data":[117,231,48,12,232,143,70,107,80,35,206,145,143,75,168,192,217,200,69,113]},"announce":[],"urlList":[]}}